# xmcd CD database file
#
# Track frame offsets:
#	150
#	30144
#	50785
#	81940
#	113400
#	142339
#
# Disc length: 2550 seconds
#
# Revision: 0
# Processed by: cddbd v1.5.2PL0 Copyright (c) Steve Scherf et al.
# Submitted via: CDex 1.70beta2
#
DISCID=4909f406
DTITLE=Javajazz - Joy Joy Joy, Disc 2
DYEAR=2009
DGENRE=Jazz
TTITLE0=JAVAJAZZ - THE SEEKER
TTITLE1=JAVAJAZZ - LEMBAH
TTITLE2=JAVAJAZZ - BULAN DIATAS ASIA
TTITLE3=JAVAJAZZ - DRAMA
TTITLE4=JAVAJAZZ - VIOLATION
TTITLE5=JAVAJAZZ - CRYSTAL SKY
EXTD=YEAR: 2009
EXTT0=
EXTT1=
EXTT2=
EXTT3=
EXTT4=
EXTT5=
PLAYORDER=
